<svg xmlns="http://www.w3.org/2000/svg" width="80" height="80" viewBox="0 0 67 57">
  <path
    d="M27.187 51.376c-1.083-1.018-.926-2.771.403-4.492.985-1.274 5.1-5.448 8.069-8.186l1.2-1.106-1.91-4.097c-2.142-4.594-2.131-4.682.695-4.997l1.556-.172 1.74 2.628c.955 1.447 1.877 2.63 2.042 2.63s1.882-1.378 3.811-3.058c3.35-2.921 3.559-3.05 4.694-2.896.684.095 1.292.037 1.435-.135.337-.403 1.303.194 1.303.805 0 .253-.483.89-1.069 1.417-2.405 2.16-7.534 7.27-7.534 7.505 0 .14 1.032 1.922 2.299 3.965l2.138 3.456a.4.4 0 0 1-.044.483l-.509.392c-.384.425-.644.758-.695 1.175.091.257-.293.381-.641.542-.882.41-1.534-.091-4.229-3.254-1.233-1.45-2.365-2.64-2.515-2.644-.333-.007-4.02 4.024-6.872 7.513-2.515 3.075-4.73 3.137-5.37 2.533zm-2.991-23.918c-.015-.022-.033-.044-.044-.062-5.616-8.384-9.687-9.86-9.54-9.951 2.134-1.373 6.139-.026 8.614 2.175.029.025.058.058.091.088.593.505.729.688 1.44 1.479.127 0 2.866-4.551 2.884-4.58 5.514-8.695 11.28-12.371 14.626-12.364 1.596 0 1.834.557 1.834.557-5.422 2.83-10.01 7.875-14.747 17.166a456 456 0 0 1-3.708 7.25c-.242.439-.282-.217-1.446-1.758z"
    fill="#0066CC" />
  <path
    d="M5.843 27.908c1.501-.37 2.654-.893 3.47-1.574q1.219-1.021 1.674-2.438t.454-3.149V11.88q.001-2.593.611-4.269.611-1.675 2.083-2.47 1.475-.798 4.046-.799V0q-3.258.001-5.477.71c-1.48.473-2.658 1.197-3.548 2.171S7.63 5.09 7.238 6.583q-.587 2.239-.586 5.297v7.095q.001 3.635-1.475 5.188C4.196 25.2 2.467 25.715 0 25.715v5.32q3.7-.001 5.177 1.552c.98 1.036 1.475 2.764 1.475 5.188v7.092q-.001 3.057.586 5.297.586 2.24 1.918 3.701c.89.974 2.069 1.7 3.548 2.171q2.217.71 5.477.71v-4.345q-2.571 0-4.046-.81-1.471-.806-2.083-2.47-.61-1.663-.611-4.258v-8.867c0-1.154-.15-2.2-.454-3.149q-.455-1.416-1.673-2.438-1.22-1.021-3.47-1.574c-.191-.048-.407-.08-.612-.121v-.685c.205-.04.42-.077.611-.12m54.609-.001c-1.501-.37-2.655-.893-3.471-1.574q-1.219-1.021-1.673-2.438-.455-1.418-.454-3.149V11.88q0-2.593-.612-4.269-.61-1.675-2.083-2.47c-.98-.532-2.332-.799-4.045-.799V0q3.257.001 5.477.71c1.479.473 2.658 1.197 3.547 2.171q1.33 1.461 1.919 3.702.586 2.239.585 5.297v7.095q0 3.635 1.476 5.188c.981 1.036 2.71 1.552 5.177 1.552v5.316q-3.7 0-5.177 1.553c-.981 1.036-1.476 2.764-1.476 5.187v7.092q0 3.058-.585 5.297c-.392 1.494-1.029 2.728-1.919 3.702q-1.329 1.462-3.547 2.17-2.218.71-5.477.711v-4.346q2.572 0 4.045-.809 1.473-.807 2.083-2.471c.407-1.11.612-2.526.612-4.258v-8.867q-.001-1.728.454-3.148.455-1.417 1.673-2.439 1.22-1.02 3.47-1.574c.191-.048.407-.08.612-.12v-.685c-.205-.04-.421-.077-.611-.121z"
    fill="#0066CC" />
</svg>
